<svg width="22" height="32" viewBox="0 0 22 32" fill="none" xmlns="http://www.w3.org/2000/svg">
<path fill-rule="evenodd" clip-rule="evenodd" d="M9.90023 0.0302607C9.76589 0.0536613 9.34823 0.123367 8.97209 0.18524C6.26282 0.631042 3.40544 2.53145 1.85644 4.91782C0.548161 6.93315 -0.00735167 8.82176 7.33974e-05 11.2289C0.00486061 12.821 0.257215 14.1008 0.878772 15.6855C1.52739 17.3393 2.06346 18.2701 4.82187 22.5326C5.98653 24.3322 7.49929 26.6748 8.18347 27.7382C8.86775 28.8016 9.76482 30.1952 10.1768 30.8349C10.5889 31.4747 10.9546 31.9989 10.9895 32C11.0243 32.001 11.7914 30.853 12.6941 29.4486C13.5968 28.0443 15.2351 25.5122 16.3348 23.8216C19.2146 19.3945 19.8075 18.4234 20.5122 16.9799C21.6449 14.6597 22.0846 12.7702 21.9868 10.6422C21.757 5.63838 18.2368 1.36598 13.4363 0.264565C12.6286 0.0792433 10.4491 -0.0651267 9.90023 0.0302607ZM9.95289 3.64982C7.4524 4.0402 5.32375 5.61627 4.27007 7.85758C3.06145 10.4283 3.37398 13.569 5.05986 15.796C6.0344 17.0834 7.70114 18.1833 9.26519 18.5713C10.2307 18.8108 11.8687 18.7906 12.8592 18.5271C15.4369 17.8413 17.4768 15.7781 18.218 13.1072C18.5245 12.0025 18.5244 10.3577 18.2178 9.24575C17.3227 6.0003 14.6466 3.79816 11.3657 3.60719C10.909 3.58061 10.2732 3.59985 9.95289 3.64982Z" fill="black"/>
</svg>
