<svg aria-hidden="true" style="position: absolute; width: 0; height: 0; overflow: hidden;" version="1.1" xmlns="http://www.w3.org/2000/svg" xmlns:xlink="http://www.w3.org/1999/xlink">
<defs>
<symbol id="icon-telegram" viewBox="0 0 32 32">
<path fill="#757575" style="fill: var(--color1, #757575)" d="M32.011 16.006c0 8.84-7.166 16.006-16.006 16.006s-16.006-7.166-16.006-16.006c0-8.84 7.166-16.006 16.006-16.006s16.006 7.166 16.006 16.006z"></path>
<path fill="#fff" style="fill: var(--color2, #fff)" d="M12.871 18.383l-0.316 4.169c0.454 0 0.65-0.18 0.886-0.4l2.133-1.901 4.414 3.017c0.81 0.42 1.381 0.2 1.599-0.694l2.899-12.677c0.258-1.12-0.432-1.557-1.22-1.28l-17.040 6.084c-1.162 0.42-1.144 1.026-0.198 1.3l4.358 1.264 10.118-5.908c0.476-0.294 0.908-0.132 0.552 0.162l-8.183 6.86z"></path>
</symbol>
<symbol id="icon-smartphone" viewBox="0 0 20 32">
<path fill="#757575" style="fill: var(--color1, #757575)" d="M17.003 0h-14.005c-1.655 0-3.001 1.346-3.001 3.001v26.009c0 1.655 1.346 3.001 3.001 3.001h14.005c1.655 0 3.001-1.346 3.001-3.001v-26.009c0-1.655-1.346-3.001-3.001-3.001zM2.998 2.001h14.005c0.552 0 1 0.448 1 1v0 21.007h-16.006v-21.007c0-0.552 0.448-1 1-1v0zM17.003 30.011h-14.005c-0.552 0-1-0.448-1-1v0-3.001h16.006v3.001c0 0.552-0.448 1-1 1v0z"></path>
<path fill="#757575" style="fill: var(--color1, #757575)" d="M4.706 27.488c0.18 0.164 0.293 0.399 0.293 0.66s-0.113 0.497-0.292 0.66l-0.001 0.001c-0.186 0.17-0.435 0.275-0.708 0.275s-0.522-0.104-0.709-0.275l0.001 0.001c-0.18-0.164-0.293-0.399-0.293-0.66s0.113-0.497 0.292-0.66l0.001-0.001c0.186-0.17 0.435-0.275 0.708-0.275s0.522 0.104 0.709 0.275l-0.001-0.001z"></path>
</symbol>
<symbol id="icon-linkedin" viewBox="0 0 32 32">
<path fill="#757575" style="fill: var(--color1, #757575)" d="M32.003 32.011h0.008v-11.744c0-5.742-1.236-10.168-7.951-10.168-3.227 0-5.394 1.773-6.278 3.451h-0.094v-2.913h-6.364v21.374h6.63v-10.584c0-2.787 0.528-5.482 3.977-5.482 3.401 0 3.451 3.181 3.451 5.662v10.404h6.622zM0.528 10.64h6.634v21.372h-6.634v-21.372zM3.843 0c-2.121 0-3.843 1.721-3.843 3.843s1.721 3.881 3.843 3.881 3.845-1.759 3.845-3.881c-0.002-2.121-1.727-3.843-3.847-3.843z"></path>
</symbol>
<symbol id="icon-github" viewBox="0 0 32 32">
<path fill="#757575" style="fill: var(--color1, #757575)" d="M32.011 16.006c0 8.84-7.166 16.006-16.006 16.006s-16.006-7.166-16.006-16.006c0-8.84 7.166-16.006 16.006-16.006s16.006 7.166 16.006 16.006z"></path>
<path fill="#1E2939" style="fill: var(--color2, #1E2939)" d="M16.006 6.59c-5.172 0-9.415 4.244-9.415 9.415 0 4.414 3.097 8.423 7.209 9.415v-3.115c-0.163 0.041-0.35 0.065-0.542 0.065-0.233 0-0.458-0.035-0.67-0.099l0.016 0.004c-0.558-0.164-1.010-0.536-1.344-1.1-0.214-0.36-0.594-0.752-0.988-0.724l-0.098-1.098c0.856-0.074 1.595 0.52 2.035 1.26 0.194 0.326 0.42 0.52 0.708 0.604 0.278 0.082 0.576 0.042 0.926-0.080 0.086-0.698 0.406-0.96 0.648-1.326-2.453-0.366-3.429-1.669-3.817-2.695-0.514-1.364-0.24-3.067 0.67-4.143 0.018-0.020 0.050-0.076 0.038-0.114-0.418-1.26 0.090-2.301 0.108-2.411 0.48 0.142 0.56-0.144 2.091 0.786l0.264 0.16c0.11 0.064 0.076 0.028 0.186 0.020 0.64-0.174 1.312-0.27 1.977-0.28 0.668 0.010 1.336 0.106 2.001 0.286l0.088 0.008c-0.008 0 0.022-0.004 0.074-0.036 1.913-1.156 1.843-0.78 2.355-0.946 0.020 0.112 0.52 1.17 0.108 2.413-0.056 0.172 1.657 1.741 0.708 4.258-0.388 1.026-1.364 2.329-3.817 2.693 0.314 0.48 0.692 0.734 0.69 1.723v3.889c4.111-0.994 7.209-5.002 7.209-9.415 0-5.172-4.244-9.415-9.415-9.415z"></path>
</symbol>
<symbol id="icon-envelope" viewBox="0 0 32 32">
<path fill="#757575" style="fill: var(--color1, #757575)" d="M29.010 4.007h-26.009c-1.655 0-3.001 1.346-3.001 3.001v18.006c0 1.655 1.346 3.001 3.001 3.001h26.009c1.655 0 3.001-1.346 3.001-3.001v-18.006c0-1.655-1.346-3.001-3.001-3.001zM29.010 6.008c0.136 0 0.266 0.028 0.384 0.078l-13.389 11.604-13.389-11.604c0.113-0.049 0.245-0.078 0.384-0.078h26.009zM29.010 26.015h-26.009c-0.552 0-1-0.448-1-1v0-16.816l13.349 11.57c0.175 0.152 0.405 0.245 0.656 0.245s0.482-0.093 0.657-0.246l-0.001 0.001 13.349-11.57v16.816c0 0.552-0.448 1-1 1v0z"></path>
</symbol>
</defs>
</svg>
