<svg aria-hidden="true" style="position: absolute; width: 0; height: 0; overflow: hidden;" version="1.1" xmlns="http://www.w3.org/2000/svg" xmlns:xlink="http://www.w3.org/1999/xlink">
<defs>
<symbol id="icon-old-phone" viewBox="0 0 50 32">
<path d="M19.968 0.619c8.164-0.49 16.214 1.701 19.861 5.406 0.86 0.873 0.909 0.903 1.468 0.904 0.789 0.001 1.287 0.323 1.527 0.99 0.324 0.903 0.853 4.127 0.759 4.629-0.11 0.59-0.706 1.26-1.264 1.425-0.288 0.085-1.844 0.117-4.459 0.093-3.855-0.036-4.030-0.048-4.358-0.292-0.581-0.432-0.887-0.994-0.879-1.615 0.004-0.307 0.158-1.323 0.342-2.257 0.277-1.405 0.306-1.716 0.169-1.799-0.58-0.35-4.123-1.111-6.692-1.438-1.872-0.238-6.681-0.206-8.681 0.058-2.539 0.335-6.049 1.113-6.363 1.411-0.053 0.050 0.070 0.98 0.273 2.066 0.292 1.563 0.344 2.068 0.25 2.416-0.172 0.639-0.454 0.983-1.018 1.239-0.454 0.207-0.848 0.227-4.432 0.227-3.577 0-3.979-0.021-4.43-0.226-0.681-0.31-1.052-0.935-1.040-1.751 0.011-0.709 0.671-4.078 0.874-4.458 0.213-0.399 0.852-0.719 1.436-0.72 0.499-0 0.593-0.059 1.517-0.949 1.173-1.129 2.031-1.731 3.579-2.51 3.206-1.614 7.148-2.586 11.56-2.851zM16.16 7.527c0.109-0.205 0.26-0.234 1.18-0.233 0.58 0.001 1.121 0.044 1.201 0.095 0.093 0.059 0.159 0.511 0.182 1.242l0.035 1.149 7.081 0.064v-1.041c0-1.484 0.024-1.511 1.305-1.509 0.58 0.001 1.121 0.044 1.201 0.095 0.093 0.059 0.159 0.511 0.182 1.242l0.035 1.149 1.392 0.065c0.766 0.036 1.489 0.111 1.608 0.166 0.461 0.216 0.57 0.705 0.57 2.541v1.752l1.331 0.046c1.81 0.062 1.844 0.097 2.238 2.294 0.161 0.897 0.655 3.652 1.097 6.122s0.847 4.788 0.897 5.153c0.113 0.812-0.035 1.41-0.461 1.866-0.603 0.646-0.909 0.732-2.773 0.786-1.701 0.049-1.725 0.053-1.725 0.326 0 0.359-0.195 0.424-1.271 0.424-1.083 0-1.271-0.065-1.271-0.438v-0.29h-7.868c-7.74 0-7.868 0.004-7.868 0.238 0 0.354-0.368 0.49-1.331 0.49s-1.331-0.136-1.331-0.49c0-0.223-0.089-0.238-1.326-0.238-1.741 0-2.496-0.167-2.988-0.659-0.708-0.71-0.741-1.102-0.3-3.618 1.325-7.561 1.99-11.103 2.138-11.389 0.231-0.448 0.743-0.595 2.069-0.595h1.131l-0.006-1.608c-0.003-0.884-0.003-1.735 0.001-1.89s0.166-0.442 0.361-0.637c0.35-0.351 0.368-0.355 1.755-0.355h1.401v-1.040c0-0.572 0.056-1.145 0.125-1.274zM44.812 8.515c0.51-0.298 0.716-0.005 0.81 1.149 0.071 0.867 0.054 1-0.151 1.186-0.524 0.475-0.871-0.073-0.871-1.376 0-0.668 0.043-0.86 0.212-0.959zM43.465 8.69c0.497-0.498 0.893 0.107 0.929 1.422 0.023 0.842 0.012 0.883-0.262 0.922-0.41 0.058-0.503-0.088-0.694-1.090-0.209-1.096-0.21-1.017 0.026-1.254zM46.115 8.746c0.11-0.178 0.615-0.143 0.779 0.055 0.204 0.246 0.036 1.826-0.229 2.154-0.218 0.269-0.656 0.231-0.771-0.068-0.071-0.185 0.113-1.966 0.221-2.141zM47.359 9.398c0.317-0.317 0.783-0.116 0.78 0.338-0.003 0.501-0.263 1.709-0.406 1.881-0.179 0.216-0.524 0.211-0.707-0.010-0.181-0.219 0.080-1.956 0.332-2.209zM48.445 10.781c0.219-0.249 0.218-0.249 0.52-0.087 0.326 0.175 0.294 0.491-0.137 1.346-0.204 0.405-0.35 0.758-0.324 0.784s0.203-0.116 0.394-0.316c0.369-0.386 0.646-0.454 0.882-0.217 0.267 0.267 0.15 0.524-0.554 1.223-0.708 0.703-0.95 0.812-1.213 0.548-0.215-0.216-0.177-0.472 0.118-0.787l0.263-0.281h-0.319c-0.57 0-0.629-0.374-0.196-1.242 0.209-0.419 0.464-0.857 0.566-0.973zM21.089 12.142c0.766-0.14 2.269-0.050 3.203 0.192 2.009 0.52 3.934 2.047 4.895 3.883 0.67 1.279 0.917 2.272 0.919 3.695 0.002 1.412-0.235 2.387-0.881 3.624-1.296 2.483-3.72 4.049-6.535 4.224-1.337 0.083-2.496-0.164-3.857-0.823-1.469-0.711-2.831-2.071-3.523-3.517-0.654-1.366-0.894-2.535-0.807-3.933 0.128-2.074 0.821-3.601 2.315-5.098 1.257-1.26 2.529-1.929 4.27-2.247zM20.416 12.748c-1.315 0.356-2.265 0.918-3.299 1.946-1.5 1.493-2.169 3.102-2.169 5.218 0 2.108 0.665 3.711 2.17 5.229 0.996 1.004 2.113 1.649 3.45 1.989 0.908 0.231 2.443 0.233 3.41 0.005 0.939-0.222 2.085-0.726 2.173-0.956 0.037-0.097-0.182-0.76-0.486-1.474-0.735-1.724-0.722-2.124 0.068-2.124 0.131 0 0.82 0.246 1.53 0.546s1.325 0.546 1.364 0.546c0.039 0 0.17-0.205 0.29-0.455 1.057-2.199 1.038-4.498-0.057-6.679-0.876-1.746-2.294-2.974-4.177-3.615-1.314-0.448-3.010-0.518-4.268-0.177zM21.67 13.497c-0.449 0.354-0.591 0.772-0.428 1.266 0.27 0.82 1.211 1.040 1.822 0.427 0.573-0.575 0.457-1.402-0.249-1.768-0.48-0.249-0.757-0.231-1.145 0.075zM49.122 14.042c0.437-0.232 0.644-0.282 0.807-0.195 0.571 0.307 0.34 0.727-0.703 1.279-0.682 0.361-0.745 0.418-0.389 0.356 0.233-0.041 0.6-0.105 0.815-0.143 0.333-0.058 0.408-0.025 0.5 0.22 0.176 0.469-0.035 0.67-0.937 0.892-1.126 0.277-1.407 0.23-1.407-0.235 0-0.249 0.081-0.401 0.263-0.492 0.257-0.128 0.257-0.136 0.030-0.278-0.128-0.080-0.233-0.27-0.233-0.422 0-0.283 0.125-0.381 1.254-0.981zM19.033 14.156c-0.558 0.303-0.745 0.968-0.437 1.548 0.213 0.401 0.481 0.56 0.952 0.565 0.562 0.005 0.928-0.268 1.075-0.799 0.155-0.565 0.001-0.953-0.5-1.26-0.468-0.286-0.647-0.295-1.089-0.054zM24.623 14.096c-0.37 0.14-0.721 0.695-0.721 1.142 0 0.493 0.601 1.034 1.15 1.034 0.327 0 0.534-0.092 0.796-0.355 0.463-0.464 0.47-0.971 0.021-1.459-0.377-0.41-0.796-0.531-1.246-0.362zM16.842 16.277c-0.646 0.51-0.49 1.616 0.274 1.933 0.722 0.3 1.437-0.132 1.544-0.932 0.060-0.451 0.026-0.551-0.301-0.879-0.446-0.447-1.043-0.495-1.517-0.122zM26.314 16.384c-0.262 0.263-0.354 0.47-0.354 0.798 0 0.584 0.537 1.153 1.089 1.153 0.456 0 1.082-0.562 1.104-0.992 0.026-0.517-0.023-0.644-0.385-0.98-0.485-0.45-0.991-0.443-1.454 0.021zM21.784 16.834c-1.159 0.29-1.871 0.845-2.318 1.804-0.565 1.214-0.253 2.671 0.77 3.596 0.608 0.55 1.219 0.765 2.157 0.76 2.555-0.013 3.89-2.977 2.29-5.081-0.544-0.716-2.075-1.286-2.899-1.079zM47.535 16.959c0.083-0.034 0.594-0.066 1.135-0.071 1.069-0.010 1.307 0.109 1.235 0.621-0.037 0.263-0.1 0.282-1.037 0.315-0.553 0.020-1.106-0.023-1.241-0.095-0.27-0.145-0.333-0.672-0.092-0.77zM46.712 17.978c0.274-0.304 0.181-0.306 1.265 0.025 0.962 0.294 1.252 0.55 1.028 0.908-0.195 0.311-0.495 0.312-1.43 0.003-0.976-0.322-1.199-0.565-0.864-0.937zM16.059 19.067c-0.779 0.727-0.302 1.938 0.764 1.938 0.983 0 1.469-1.151 0.791-1.874-0.375-0.4-1.161-0.432-1.556-0.064zM46.049 19.071c0.182-0.34 0.534-0.315 1.414 0.103 0.814 0.386 1.058 0.667 0.875 1.009-0.166 0.31-0.619 0.266-1.418-0.139-0.88-0.445-1.051-0.636-0.871-0.973zM45.154 19.739c0.105-0.105 0.261-0.191 0.347-0.191 0.264 0 1.762 1.229 1.762 1.447 0 0.272-0.237 0.495-0.526 0.495-0.35 0-1.774-1.173-1.774-1.461 0-0.055 0.086-0.185 0.19-0.29zM44.14 20.544c0.284-0.285 0.58-0.136 1.189 0.597 0.713 0.859 0.79 1.353 0.221 1.419-0.268 0.031-0.425-0.090-0.938-0.726-0.633-0.784-0.724-1.035-0.471-1.289zM43.107 21.086c0.044-0.045 0.207-0.081 0.362-0.081 0.226 0 0.363 0.164 0.706 0.846 0.465 0.925 0.517 1.232 0.249 1.454-0.31 0.258-0.61 0.024-1.009-0.786-0.373-0.758-0.481-1.261-0.308-1.434zM16.977 21.701c-0.976 0.607-0.552 2.095 0.596 2.095 0.512 0 1.124-0.554 1.124-1.016 0-0.47-0.254-0.925-0.623-1.116-0.431-0.223-0.692-0.214-1.098 0.038zM41.966 21.753c0.326-0.327 0.629-0.096 1.121 0.859 0.389 0.755 0.458 0.981 0.35 1.153-0.175 0.278-0.494 0.336-0.738 0.133-0.203-0.169-0.883-1.593-0.883-1.848 0-0.081 0.067-0.214 0.15-0.297zM41.025 22.389c0.128-0.094 0.273-0.171 0.322-0.171 0.219 0 0.478 0.433 0.731 1.222 0.299 0.93 0.242 1.232-0.247 1.305-0.209 0.031-0.31-0.069-0.495-0.486-0.127-0.289-0.302-0.789-0.388-1.112-0.144-0.541-0.138-0.601 0.076-0.758zM37.276 22.508c0.418-0.307 0.704 0.035 0.897 1.076 0.194 1.043 0.139 1.305-0.272 1.305-0.424 0-0.543-0.214-0.707-1.269-0.136-0.88-0.131-0.956 0.082-1.111zM39.789 22.541c0.53-0.215 0.73 0.013 1.126 1.279 0.248 0.795 0.126 1.109-0.409 1.044-0.252-0.030-0.349-0.167-0.585-0.825-0.314-0.876-0.361-1.405-0.132-1.497zM38.494 22.818c0.429-0.476 0.742-0.202 1.131 0.989 0.283 0.866 0.251 1.149-0.143 1.274-0.343 0.109-0.607-0.238-0.937-1.234-0.252-0.759-0.254-0.804-0.051-1.029zM18.809 23.908c-0.446 0.448-0.479 1.065-0.081 1.524 0.798 0.921 2.221 0.11 1.894-1.079-0.224-0.812-1.206-1.053-1.812-0.445zM21.636 24.496c-0.714 0.556-0.548 1.699 0.287 1.975 1.163 0.385 2.005-0.969 1.141-1.836-0.412-0.413-1.003-0.471-1.428-0.14z"></path>
</symbol>
</defs>
</svg>
